HIERARCHY
ROOT Hips
{
	OFFSET -3.958830 18.904000 13.208200
	CHANNELS 6 Xposition Yposition Zposition Zrotation Yrotation Xrotation 
	JOINT LHipJoint
	{
		OFFSET 0.000000 0.000000 0.000000
		CHANNELS 3 Zrotation Yrotation Xrotation
		JOINT LeftUpLeg
		{
			OFFSET 1.800000 -1.400000 0.085000
			CHANNELS 3 Zrotation Yrotation Xrotation
			JOINT LeftLeg
			{
				OFFSET 2.215000 -6.000000 0.000000
				CHANNELS 3 Zrotation Yrotation Xrotation
				JOINT LeftFoot
				{
					OFFSET 2.500000 -6.900000 0.000000
					CHANNELS 3 Zrotation Yrotation Xrotation
					JOINT LeftToeBase
					{
						OFFSET 0.200000 -0.500000 1.950000
						CHANNELS 3 Zrotation Yrotation Xrotation
						End Site
						{
							OFFSET 0.000000 0.000000 0.000000
						}
					}
				}
			}
		}
	}
	JOINT RHipJoint
	{
		OFFSET 0.000000 0.000000 0.000000
		CHANNELS 3 Zrotation Yrotation Xrotation
		JOINT RightUpLeg
		{
			OFFSET -1.800000 -1.400000 0.085000
			CHANNELS 3 Zrotation Yrotation Xrotation
			JOINT RightLeg
			{
				OFFSET -2.215000 -6.000000 0.000000
				CHANNELS 3 Zrotation Yrotation Xrotation
				JOINT RightFoot
				{
					OFFSET -2.500000 -6.900000 0.000000
					CHANNELS 3 Zrotation Yrotation Xrotation
					JOINT RightToeBase
					{
						OFFSET -0.200000 -0.500000 1.950000
						CHANNELS 3 Zrotation Yrotation Xrotation
						End Site
						{
							OFFSET 0.000000 0.000000 0.000000
						}
					}
				}
			}
		}
	}
	JOINT LowerBack
	{
		OFFSET 0.000000 0.000000 0.000000
		CHANNELS 3 Zrotation Yrotation Xrotation
		JOINT Spine
		{
			OFFSET -0.087000 1.940000 -0.288900
			CHANNELS 3 Zrotation Yrotation Xrotation
			JOINT Spine1
			{
				OFFSET 0.000000 1.950000 0.060000
				CHANNELS 3 Zrotation Yrotation Xrotation
				JOINT Neck
				{
					OFFSET 0.000000 0.000000 0.000000
					CHANNELS 3 Zrotation Yrotation Xrotation
					JOINT Neck1
					{
						OFFSET 0.000000 1.600000 0.340000
						CHANNELS 3 Zrotation Yrotation Xrotation
						JOINT Head
						{
							OFFSET 0.000000 1.667000 -0.240000
							CHANNELS 3 Zrotation Yrotation Xrotation
							End Site
							{
								OFFSET 0.000000 0.000000 0.000000
							}
						}
					}
				}
				JOINT LeftShoulder
				{
					OFFSET 0.000000 0.000000 0.000000
					CHANNELS 3 Zrotation Yrotation Xrotation
					JOINT LeftArm
					{
						OFFSET 2.700000 1.550000 -0.730000
						CHANNELS 3 Zrotation Yrotation Xrotation
						JOINT LeftForeArm
						{
							OFFSET 5.450000 0.000000 0.000000
							CHANNELS 3 Zrotation Yrotation Xrotation
							JOINT LeftHand
							{
								OFFSET 3.450000 0.000000 0.000000
								CHANNELS 3 Zrotation Yrotation Xrotation
								JOINT LeftHandIndex1
								{
									OFFSET 0.750000 0.000000 0.000000
									CHANNELS 3 Zrotation Yrotation Xrotation
									End Site
									{
										OFFSET 0.000000 0.000000 0.000000
									}
								}
							}
						}
					}
				}
				JOINT RightShoulder
				{
					OFFSET 0.000000 0.000000 0.000000
					CHANNELS 3 Zrotation Yrotation Xrotation
					JOINT RightArm
					{
						OFFSET -2.700000 1.550000 -0.730000
						CHANNELS 3 Zrotation Yrotation Xrotation
						JOINT RightForeArm
						{
							OFFSET -5.450000 0.000000 0.000000
							CHANNELS 3 Zrotation Yrotation Xrotation
							JOINT RightHand
							{
								OFFSET -3.450000 0.000000 0.000000
								CHANNELS 3 Zrotation Yrotation Xrotation
								JOINT RightHandIndex1
								{
									OFFSET -0.750000 0.000000 0.000000
									CHANNELS 3 Zrotation Yrotation Xrotation
									End Site
									{
										OFFSET 0.000000 0.000000 0.000000
									}
								}
							}
						}
					}
				}
			}
		}
	}
}
MOTION
Frames: 14
Frame Time: 0.016667
-0.479090 16.150100 -0.230240 -1.905846 47.369772 -1.580375 -15.859916 11.352745 6.475748 26.660096 -8.086165 -38.130658 -32.338373 24.121671 40.676641 1.166906 11.811417 0.284523 0.428020 0.372740 0.376540 17.985791 -9.450294 1.679447 -14.372999 1.385120 -33.441609 -13.534535 -2.172522 41.548177 -0.567179 -5.152269 2.358489 0.226480 -0.177680 0.038200 -2.504085 -2.938448 -9.231337 -1.177095 0.462825 37.934704 1.632425 1.803080 8.127451 0.819098 3.391992 -10.799170 0.145931 -6.724563 49.890514 3.651650 -4.826670 -16.769110 -10.245856 -22.265622 0.544479 -6.104771 -26.466894 -3.518703 -51.772111 -75.377169 39.124951 -3.392950 3.347633 0.485390 -0.191060 0.265590 0.020750 8.957859 21.066653 9.688198 18.848413 2.422206 -13.978468 -176.194313 89.026394 177.274411 1.931630 -1.530998 -0.050750 0.222760 -0.081750 -0.168950 
-0.520380 16.032920 -0.208450 -1.628567 48.119299 -1.391831 -15.890776 11.182642 6.657294 27.646269 -8.297227 -39.768301 -33.045392 25.358386 42.307033 1.285385 12.208899 0.183499 0.437810 0.390190 0.376620 18.010829 -9.303663 1.662848 -14.664141 1.463826 -34.034724 -14.284521 -2.031309 43.425573 -0.634744 -5.480654 2.246526 0.234400 -0.174960 0.039940 -2.438065 -3.003171 -9.319792 -1.805098 0.821734 39.391229 1.986694 2.040723 7.272962 0.659825 3.648043 -10.566456 0.872160 -6.574300 48.249578 4.654630 -4.195000 -17.302210 -10.984616 -22.402432 0.299944 -4.744076 -26.338643 -3.874585 -53.804414 -75.508033 40.890693 -3.401248 3.368139 0.481980 -0.192270 0.269630 0.030340 9.978055 21.032303 9.591803 17.777516 1.543035 -14.097514 5.281172 89.939063 -1.115192 1.947832 -1.562549 -0.046720 0.218480 -0.093840 -0.164840 
-0.584070 15.874690 -0.185150 -1.647935 48.762259 -1.949802 -15.900216 10.869929 6.865460 29.396131 -8.361009 -41.463158 -34.328324 27.423223 44.635732 1.432454 12.817853 0.013300 0.457150 0.419560 0.377800 18.086587 -9.038036 1.766476 -14.557700 2.033697 -35.731322 -15.375570 -1.820977 47.721897 -0.801785 -6.181697 2.003368 0.249650 -0.183460 0.039120 -2.445670 -2.971909 -9.492790 -1.848843 1.169510 43.047307 1.753684 2.564522 5.693218 0.468129 3.646636 -10.185282 0.882295 -7.193983 45.951206 6.899620 -4.594500 -20.292200 -12.067549 -22.794982 -0.478507 -3.142934 -26.792009 -4.703917 -54.638374 -74.942165 41.290754 -3.380308 3.361957 0.523190 -0.223880 0.296230 0.030880 11.349591 21.368860 9.825576 16.448034 -0.554431 -14.680129 7.653762 89.607973 1.027464 1.956486 -1.577291 -0.049970 0.237990 -0.093280 -0.163620 
-0.648280 15.724410 -0.173670 -1.390955 49.585673 -2.751984 -15.902523 10.571465 7.028318 30.730928 -8.635097 -43.230725 -34.859850 29.364184 47.534255 1.607170 13.379683 -0.135201 0.489250 0.464200 0.399420 18.162762 -8.747406 1.931110 -14.725763 2.751031 -37.667914 -16.522451 -1.633544 53.510820 -1.046216 -7.148156 1.683425 0.255920 -0.222160 0.040720 -2.447609 -2.976830 -9.678924 -1.818197 1.484113 47.806170 1.564831 3.012890 3.334727 0.479174 3.703118 -10.043898 1.049156 -8.111539 43.801212 8.712180 -4.931870 -23.257400 -14.114437 -23.882918 -0.837852 -2.035443 -26.458974 -5.946499 -51.855345 -74.072912 38.645613 -3.321724 3.371166 0.558880 -0.271310 0.342730 0.033330 13.346837 22.428170 10.050802 14.512727 -2.630703 -15.501710 6.765454 88.586670 0.416414 1.968415 -1.574600 -0.028860 0.235850 -0.116190 -0.159980 
-0.706330 15.610880 -0.162290 -1.433120 50.003554 -4.048714 -15.879068 10.359602 7.096848 31.551685 -8.839918 -44.163056 -34.228737 30.725237 50.520297 1.753908 13.841910 -0.247801 0.481350 0.453990 0.382470 18.229226 -8.561189 2.112294 -14.395655 3.698985 -39.015533 -17.579576 -1.235062 58.501064 -1.254784 -7.984128 1.429789 0.234580 -0.231740 0.033970 -2.520038 -2.876150 -9.829116 -1.676344 1.550388 52.562504 1.030242 3.150040 0.798585 0.456387 3.461775 -10.382529 0.632878 -8.755847 42.984996 11.111050 -5.822790 -24.280060 -16.774736 -25.297253 -0.405521 -1.669192 -24.520779 -7.244878 -49.374629 -74.182909 36.597789 -3.269297 3.385532 0.582230 -0.304990 0.358030 0.034830 16.092809 24.011708 10.285087 12.738236 -3.380876 -15.919170 7.574520 84.901148 1.626277 1.993659 -1.585783 -0.021900 0.229810 -0.119010 -0.149240 
-0.736520 15.531310 -0.160840 -2.030512 49.960364 -5.564559 -15.865646 10.235830 7.148893 32.321627 -9.015058 -44.718559 -33.569448 31.632592 52.904854 1.838322 14.178257 -0.346279 0.507620 0.477920 0.390340 18.273092 -8.380357 2.270551 -13.963152 4.617314 -39.972879 -18.171546 -0.998124 62.436122 -1.441409 -8.626670 1.230700 0.241680 -0.264390 0.035680 -2.507469 -2.911283 -9.943023 -1.423613 1.611936 56.296333 0.945236 3.306778 -1.264923 0.631518 3.528360 -10.790258 0.697169 -9.434389 43.114769 12.879350 -6.483510 -25.500790 -19.376887 -26.773601 0.045402 -3.485902 -23.449233 -8.028745 -44.015725 -71.951962 31.100113 -3.196835 3.389317 0.619180 -0.345380 0.389990 0.041520 18.417066 25.550572 10.437532 11.366696 -2.940806 -15.878177 10.180293 79.067326 4.092555 2.005728 -1.615431 -0.011620 0.218950 -0.133870 -0.150650 
-0.738150 15.465510 -0.163430 -2.758894 49.467243 -6.465806 -15.870375 10.147651 7.256148 33.097511 -9.106576 -45.614841 -33.197002 32.587345 54.989362 1.929281 14.497408 -0.435473 0.521560 0.493220 0.400260 18.293575 -8.213819 2.367370 -13.904134 5.254822 -40.484892 -17.793957 -1.344705 64.603065 -1.532162 -8.941851 1.135680 0.239870 -0.288810 0.033350 -2.439159 -3.024409 -10.059852 -1.051494 1.617490 57.836993 1.054103 3.470297 -2.711176 0.978391 3.453996 -11.491976 0.371272 -9.396155 44.880862 13.393190 -6.947710 -25.432550 -22.167466 -28.189556 0.858051 -7.556811 -22.740025 -8.248707 -35.447052 -67.203425 22.642220 -3.140600 3.335425 0.636260 -0.370310 0.411990 0.038790 20.635042 27.280446 10.493663 10.922754 -1.085760 -15.520153 9.889532 70.514442 4.236981 2.011556 -1.585571 0.001920 0.212180 -0.141930 -0.148740 
-0.708720 15.423920 -0.163730 -3.463417 48.488253 -6.440110 -15.892285 10.081723 7.374765 33.868141 -8.873642 -46.588899 -33.211886 33.321447 56.073107 1.982521 14.695425 -0.490214 0.513280 0.471640 0.404900 18.295956 -8.033488 2.464098 -14.005701 5.865693 -41.077455 -17.372551 -1.609739 65.270204 -1.551585 -9.009201 1.118306 0.220570 -0.312200 0.025660 -2.347937 -3.177515 -10.192512 -0.706016 1.514439 57.595495 1.209455 3.391373 -3.756635 1.467228 3.077569 -12.867174 -0.413474 -8.853243 47.569054 12.755990 -7.500160 -24.409140 -24.809152 -29.281851 2.468556 -12.831732 -20.400928 -8.733650 -25.825467 -61.787997 14.217861 -3.070521 3.258867 0.655330 -0.389660 0.421890 0.028460 22.416143 29.238282 10.517565 11.316895 2.285459 -14.394447 7.404660 58.585021 3.288515 2.020849 -1.476300 0.003010 0.204840 -0.138030 -0.156790 
-0.661930 15.437130 -0.152530 -3.817812 47.345884 -6.114704 -15.909268 10.176692 7.397920 34.014017 -8.765350 -46.365347 -33.205096 33.170468 55.880675 1.982144 14.650723 -0.481485 0.484950 0.420950 0.409410 18.260236 -7.990135 2.510761 -13.735259 6.260900 -40.937838 -16.952564 -1.612860 63.930905 -1.479659 -8.749864 1.202021 0.184710 -0.332570 0.018870 -2.281296 -3.332010 -10.242755 -0.709840 1.562114 57.231790 1.323481 3.295616 -5.225421 1.941031 2.991182 -14.618625 -0.467471 -7.920512 50.238517 11.343360 -7.343590 -22.059690 -29.230253 -30.509908 4.137062 -17.534630 -17.978221 -9.410909 -15.478917 -54.942093 6.793049 -3.018435 3.192900 0.657000 -0.392230 0.415670 0.010830 26.046015 31.053074 10.939863 12.758880 5.068781 -13.057052 3.525097 47.261986 1.782551 2.056366 -1.376489 0.000750 0.179680 -0.131430 -0.173050 
-0.602160 15.477470 -0.150710 -3.524043 45.898684 -5.127901 -15.907262 10.237423 7.356537 33.578058 -8.891831 -45.736532 -33.779191 32.829865 54.791849 1.940229 14.513692 -0.455120 0.471020 0.395530 0.417450 18.229406 -8.043170 2.549155 -13.876302 6.204968 -41.111373 -16.617019 -1.618713 61.969954 -1.387259 -8.404194 1.302462 0.173570 -0.338930 0.014830 -2.333012 -3.252103 -10.265772 -0.473952 1.338020 55.486236 0.598920 3.055190 -5.290326 2.230222 3.387582 -16.092005 0.359148 -7.505354 53.038453 10.370740 -7.167480 -20.436900 -33.134299 -31.414098 5.132564 -20.991549 -17.378259 -9.382505 -6.175689 -44.746344 1.665506 -3.026631 3.073526 0.662260 -0.387990 0.412220 -0.004130 29.342384 31.913135 11.554623 16.486227 7.343611 -11.827034 -0.828493 38.009254 0.259596 2.099233 -1.262260 -0.007960 0.177790 -0.120240 -0.186000 
-0.518960 15.534750 -0.148020 -3.095291 44.042342 -3.777612 -15.906883 10.295503 7.328761 33.191869 -8.701685 -44.957088 -35.175226 32.762947 53.022640 1.937226 14.328758 -0.398651 0.477550 0.401520 0.421120 18.199855 -8.074597 2.588137 -14.141147 6.096021 -41.431039 -16.432240 -1.518224 59.633806 -1.292649 -8.002156 1.427618 0.172000 -0.352590 0.010400 -2.384570 -3.200224 -10.305308 -0.060352 0.931259 53.116458 -0.031038 2.716498 -5.157286 2.506886 3.004944 -17.287967 -0.370616 -6.652963 55.062385 9.263620 -7.150850 -19.117860 -37.089104 -31.288073 6.206415 -24.654768 -16.285882 -9.630148 1.658285 -36.883598 -1.410177 -3.032734 3.016051 0.649140 -0.392000 0.413040 0.003010 32.752156 32.378976 12.054923 19.734121 9.098000 -10.477186 -3.717758 30.175250 -0.512461 2.186009 -1.198469 0.003740 0.167550 -0.132130 -0.182490 
-0.427870 15.611950 -0.150680 -2.682912 42.269775 -2.285003 -15.895959 10.377831 7.260414 32.500595 -8.671283 -43.981914 -36.501981 32.158526 50.668366 1.879934 14.048785 -0.320782 0.464320 0.375380 0.434390 18.171082 -8.151764 2.612579 -14.539326 5.692645 -41.779634 -16.091479 -1.585803 56.738604 -1.167380 -7.521601 1.576776 0.160630 -0.353900 0.013150 -2.456251 -3.110460 -10.313299 0.378018 0.298705 50.280829 -0.933491 2.207226 -4.901902 2.755125 3.411724 -18.250602 0.697692 -6.169112 56.346599 7.346110 -6.184310 -17.284690 -40.543662 -31.095921 7.354763 -26.517387 -15.076255 -9.489083 5.590340 -29.598491 -2.379484 -3.092204 2.984312 0.638360 -0.371760 0.401090 -0.005900 35.471251 32.180734 12.196050 23.434443 10.077467 -9.338251 -5.624935 24.550775 -0.945882 2.261042 -1.157427 -0.003130 0.156330 -0.128770 -0.197970 
-0.311000 15.697800 -0.144620 -2.313899 39.978139 -1.467128 -15.861684 10.549353 7.127524 31.423341 -8.484018 -42.069024 -37.352221 31.455851 48.477769 1.803208 13.745259 -0.251673 0.463260 0.371780 0.447040 18.139459 -8.358247 2.553890 -15.403818 5.042644 -41.086865 -14.807627 -2.110232 53.285709 -1.024649 -6.913058 1.760706 0.162960 -0.362890 0.012480 -2.559099 -2.962369 -10.236376 1.397502 -0.097137 47.510617 -2.044036 2.353153 -5.123073 3.077103 3.305454 -17.549726 0.453779 -5.426957 57.193519 6.389470 -5.388360 -17.302560 -43.057915 -29.223726 7.327131 -29.297280 -14.121647 -9.057981 6.336954 -25.647844 -2.510585 -3.129722 2.950879 0.646790 -0.370410 0.403720 -0.016640 37.326617 30.485261 11.870760 27.649541 8.488622 -9.328970 -6.597981 23.258886 -1.280594 2.276855 -1.161111 -0.010550 0.158050 -0.123770 -0.211130 
-0.184230 15.781330 -0.130440 -1.600716 37.282900 0.719003 -15.843192 10.640396 7.001898 30.124431 -8.266673 -40.983722 -38.333313 30.643808 45.883564 1.781703 13.397672 -0.129245 0.438100 0.350580 0.406960 18.117863 -8.473042 2.552937 -16.757355 4.189130 -41.279524 -13.053071 -2.859283 49.386920 -0.842943 -6.291196 1.969255 0.150310 -0.326420 0.016550 -2.615839 -2.858117 -10.194925 1.888468 -0.422318 43.010959 -2.083795 1.989211 -5.419538 3.026279 2.450174 -15.498054 -1.066830 -4.382153 55.699442 5.173160 -5.139370 -15.546450 -43.986681 -25.964718 6.649725 -33.158907 -11.585586 -9.091385 6.471911 -25.358056 -2.682758 -3.156337 3.001924 0.584080 -0.332920 0.361090 0.000240 38.437685 27.635414 10.760135 31.708781 6.977210 -9.272092 -6.385877 22.864047 -1.461254 2.306700 -1.200474 -0.000900 0.140120 -0.122380 -0.186980 
